<?xml version="1.0" encoding="utf-8"?>
<!-- Generator: Adobe Illustrator 25.0.0, SVG Export Plug-In . SVG Version: 6.00 Build 0)  -->
<svg version="1.1" id="Layer_1" xmlns="http://www.w3.org/2000/svg" xmlns:xlink="http://www.w3.org/1999/xlink" x="0px" y="0px"
	 viewBox="0 0 258.9 146" style="enable-background:new 0 0 258.9 146;" xml:space="preserve">
<style type="text/css">
	.st0{fill:white;}
</style>
<g>
	<path class="st0" d="M132.4,99L132.4,99c-0.3-0.1-0.6-0.3-1.1-0.4c-0.1,0-0.4-0.1-0.7-0.2c-0.4-0.1-0.4-0.1-0.4-0.1c0,0,0,0,0,0
		c-0.1-0.1-0.3-0.3-0.5-0.8c-0.2-0.4-0.6-1.6-1.2-3.4l-3.4-9.3c-0.4-1-0.7-1.8-0.9-2.3c-0.3-1-0.7-1.9-1.1-2.7l-0.1-0.1l-0.7,0
		l-0.6,0l-0.1,0.2c-0.3,0.9-0.5,1.6-0.7,2.2c-0.8,2.2-1.3,3.6-1.6,4.2l-1.4,3.9c-0.2,0.6-0.5,1.3-0.7,1.8c-0.1,0.2-0.3,0.7-0.6,1.6
		c-0.6,1.8-1.2,3.2-1.7,4.2c-0.2,0.4-0.5,0.7-0.8,0.9c0,0-0.2,0.1-1.2,0.2c-0.2,0-0.3,0-0.3,0h-0.3c-0.2,0-0.3,0-0.5,0.1l-0.1,0
		l0,0.1c0,0.1-0.1,0.3-0.1,0.4v0.3l0.2,0c0.4,0,0.7,0,0.9,0c0.1,0,0.4,0,0.7,0c0.5,0,0.9,0,1.1,0s0.5,0,1,0c1,0,2,0.1,2.7,0.1
		c0.2,0,0.6,0,1,0l0.2,0l0.1-0.2c0-0.1,0.1-0.2,0.1-0.3c0-0.1-0.1-0.3-0.3-0.4l-0.1,0l-2.1-0.2c-0.3,0-0.5-0.1-0.7-0.1
		c-0.1-0.2-0.1-0.2-0.1-0.2c0-0.1,0.1-0.5,0.8-2.5l1.3-4c0-0.1,0.1-0.3,0.2-0.5c0.3,0,0.6-0.1,0.9-0.1l0.9,0l3.1,0
		c0.3,0,0.5,0,0.9,0.1c1.1,2.9,1.4,3.9,1.5,4.2c0.1,0.4,0.3,0.9,0.5,1.4c0.3,1,0.4,1.2,0.4,1.3c0,0,0,0.1,0,0.2
		c-0.2,0.1-0.4,0.1-0.7,0.1l-1.5,0.1c-0.1,0-0.3,0.1-0.4,0.1l-0.1,0l0,0.1c-0.1,0.2-0.1,0.3-0.1,0.5v0.1l0.1,0.1
		c0.1,0.1,0.2,0.1,0.4,0.1h0.3c0.1,0,0.2,0,0.3,0c0.1,0,0.3,0,0.4,0l1.8,0l1.5,0c1.3,0,2.1,0,2.6,0c0.1,0,0.4,0,0.7,0l0.2,0l0.1-0.2
		c0-0.1,0.1-0.2,0.1-0.3C132.5,99.3,132.4,99.2,132.4,99L132.4,99z M124.2,90.2c-0.5,0-1.1,0-1.7,0c-1.2,0-2.3,0-3.3-0.1
		c0-0.1,0-0.2,0.1-0.2c0-0.1,0.1-0.4,0.2-0.8c0.1-0.4,0.3-0.8,0.4-1.1c0.3-0.8,0.7-2,1.3-3.5c0.1-0.2,0.3-0.6,0.4-1l1.2,3.1
		c0.1,0.2,0.4,1.1,1.1,2.8C124.1,89.7,124.2,89.9,124.2,90.2z"/>
	<path class="st0" d="M150.9,94.7c-0.3,0.7-0.5,1.2-0.7,1.5c-0.1,0.2-0.2,0.3-0.3,0.4c-0.2,0.3-0.5,0.7-0.9,1
		c-0.8,0.7-1.2,0.9-1.4,0.9c-0.3,0.1-0.7,0.2-1.3,0.2l-2.5,0.1h-1c-1,0-1.7,0-2,0c0,0,0-0.1,0-0.3l0-0.9l0-4.1l0-9.3
		c0-0.5,0-0.8,0-1c0-0.8,0.2-0.9,0.2-1c0,0,0.3-0.1,1.5-0.1c1.4-0.1,1.5-0.1,1.6-0.1l0.2,0l0-0.1c0.1-0.2,0.1-0.4,0.1-0.6l0-0.2
		l-0.2,0c-0.3,0-0.9,0-1.7,0l-1.2,0.1c0,0-0.2,0-0.9,0c-0.2,0-0.4,0-0.5,0l-0.4,0l-3.5-0.1c-0.4,0-0.7,0-0.9,0h-0.2l0,0.2
		c0,0.1,0,0.2,0,0.3c0,0.1,0,0.1,0,0.3l0,0.2l0.2,0c1.4,0.2,2.1,0.4,2.3,0.4c0.1,0,0.3,0.1,0.5,0.2c0,0.1,0.1,0.2,0.1,0.2
		c0,0.5,0,1.8,0,3.8l0,4.3l0,2.6l-0.1,3.9c0,1-0.1,1.2-0.1,1.3c0,0.1-0.2,0.2-0.7,0.2c-0.7,0.1-1.5,0.2-2.3,0.4l-0.1,0l-0.1,0.1
		c-0.1,0.2-0.1,0.3-0.2,0.5l0,0.3h1.8c0.3,0,0.6,0,0.9,0c0.9-0.1,3.7-0.1,8.3-0.1l5.7,0.2l0-0.2c0-0.2,0-0.3,0.1-0.5
		c0.1-0.9,0.3-2.1,0.6-3.4c0.1-0.3,0.1-0.7,0.2-1l0-0.3H151L150.9,94.7z"/>
	<path class="st0" d="M178.2,99.1c-1.2-0.2-2-0.4-2.5-0.5c-0.4-0.1-0.4-0.2-0.4-0.3c0,0-0.1-0.2-0.1-1.2l0-1.8l0-2.9
		c-0.1-3.4-0.1-5.9-0.1-7.4l0-0.7l0-0.7c0.1-1,0.1-1.2,0.1-1.3c0,0,0.1-0.1,0.3-0.2c0.1-0.1,0.5-0.1,1.6-0.2c0.5,0,0.9-0.1,1.2-0.3
		l0.1-0.1l0-0.1c0-0.1,0.1-0.2,0.1-0.3c0-0.1,0-0.2,0-0.3l0-0.2l-0.2,0c-0.5,0-1.1,0-1.9,0c-1.2,0-2.1,0-2.6,0
		c-0.5-0.1-0.8-0.1-1.2,0.1l-0.1,0l0,0.1c-0.1,0.2-0.4,1.1-1,2.7c-0.1,0.4-0.3,0.9-0.5,1.4c-0.6,1.4-0.9,2.1-1,2.3
		c-0.1,0.2-0.2,0.4-0.2,0.5c-0.1,0.1-0.1,0.3-0.2,0.5c-0.7,2-1.7,4.2-2.9,6.7l-5.7-12.5l-0.6-1.4c-0.1-0.1-0.2-0.2-0.3-0.3l-0.1-0.1
		c-0.2-0.1-0.4-0.1-0.6-0.1c-0.1,0-0.3,0-0.8,0.1c-0.7,0-1.1,0.1-1.4,0.1c-0.8,0-1.5,0-1.9-0.1c-0.3,0-0.5-0.1-0.5-0.1
		c-0.1,0-0.3,0-0.5,0.1l-0.1,0l0,0.1c-0.1,0.2-0.1,0.3-0.1,0.4c0,0.1,0.1,0.3,0.2,0.5l0.1,0.1l0.1,0c1.4,0.1,2.4,0.3,3.1,0.4v0.2
		c0,0.7-0.1,2.3-0.2,4.9c-0.2,3.5-0.3,6.3-0.4,8.3c-0.1,1.9-0.2,2.6-0.3,2.8c0,0-0.1,0.1-0.1,0.1c0,0-0.2,0.1-1,0.1
		c-0.8,0.1-1.4,0.3-1.8,0.5l-0.1,0.1l0,0.8l0.2,0c0.7,0,1.3,0,1.7-0.1c0.7,0,1.2-0.1,1.5-0.1l4.7,0.2l0.1-0.2
		c0.1-0.2,0.1-0.3,0.1-0.3c0-0.1,0-0.2-0.1-0.4l-0.1-0.1l-0.1,0c-0.4-0.1-0.8-0.1-1.1-0.1c-1.3,0-1.7-0.2-1.8-0.2
		c-0.2-0.1-0.3-0.3-0.3-0.6c-0.1-1.1-0.2-2.2-0.2-3.1c0-2.9,0.1-5.7,0.2-8.1c0.1-1.3,0.1-2.2,0.2-2.9c0.6,1.2,1.6,3.2,2.8,6
		c1.5,3.4,2.8,6.7,3.9,9.9l0.1,0.2l0.7,0l0.1-0.2c0.1-0.2,0.2-0.5,0.3-0.9c0.3-0.8,0.7-1.8,1.1-2.9l1-2.4l0.8-2l2.2-5.1l0.2-0.6
		c0.2-0.5,0.4-1,0.6-1.3c0,0.7,0,1.6,0,2.6c0,2,0,3.4-0.1,4.3c0,0.9-0.1,1.5-0.1,1.8l0,3c0,1,0,1.7-0.1,2.1
		c-0.3,0.2-0.7,0.3-1.1,0.4c-0.6,0.1-1,0.1-1.4,0.3l-0.1,0l0,0.1c0,0.1-0.1,0.2-0.1,0.4v0.3l0.1,0.1c0.1,0.1,0.2,0.1,0.3,0.1
		c0.1,0,0.4,0,0.8-0.1c0.6,0,2-0.1,4-0.1c0.1,0,0.4,0,1.1,0.1c0.7,0,1.3,0.1,1.9,0.1h0.9l0-0.2c0-0.1,0-0.2,0-0.3
		c0-0.2-0.1-0.3-0.2-0.4L178.2,99.1z"/>
	<path class="st0" d="M200.6,99L200.6,99c-0.3-0.1-0.6-0.3-1.1-0.4c-0.1,0-0.4-0.1-0.7-0.2c-0.4-0.1-0.4-0.1-0.4-0.1c0,0,0,0,0,0
		c-0.1-0.1-0.3-0.3-0.5-0.8c-0.2-0.4-0.6-1.6-1.2-3.4l-3.4-9.3c-0.4-1-0.7-1.8-0.9-2.3c-0.3-1-0.7-1.9-1.1-2.7l-0.1-0.1l-0.7,0
		l-0.6,0l-0.1,0.2c-0.3,0.9-0.5,1.6-0.7,2.2c-0.8,2.2-1.3,3.6-1.6,4.2l-1.4,3.9c-0.2,0.6-0.5,1.3-0.7,1.8c-0.1,0.2-0.3,0.7-0.6,1.6
		c-0.6,1.8-1.2,3.2-1.7,4.2c-0.2,0.4-0.5,0.7-0.8,0.9c0,0-0.2,0.1-1.2,0.2c-0.2,0-0.3,0-0.3,0h-0.3c-0.2,0-0.3,0-0.5,0.1l-0.1,0
		l0,0.1c0,0.1-0.1,0.3-0.1,0.4v0.3l0.2,0c0.4,0,0.7,0,0.9,0c0.1,0,0.4,0,0.7,0c0.5,0,0.9,0,1.1,0s0.5,0,1,0c1,0,2,0.1,2.7,0.1
		c0.2,0,0.6,0,1,0l0.2,0l0.1-0.2c0-0.1,0.1-0.2,0.1-0.3c0-0.1-0.1-0.3-0.3-0.4l-0.1,0l-2.1-0.2c-0.3,0-0.5-0.1-0.7-0.1
		c-0.1-0.2-0.1-0.2-0.1-0.2c0-0.1,0.1-0.5,0.8-2.5l1.3-4c0-0.1,0.1-0.3,0.2-0.5c0.3,0,0.6-0.1,0.9-0.1l0.9,0l3.1,0
		c0.3,0,0.5,0,0.9,0.1c1.1,2.9,1.4,3.9,1.5,4.2c0.1,0.4,0.3,0.9,0.5,1.4c0.3,1,0.4,1.2,0.4,1.3c0,0,0,0.1,0,0.2
		c-0.2,0.1-0.4,0.1-0.7,0.1l-1.5,0.1c-0.1,0-0.3,0.1-0.4,0.1l-0.1,0l0,0.1c-0.1,0.2-0.1,0.3-0.1,0.5v0.1l0.1,0.1
		c0.1,0.1,0.2,0.1,0.4,0.1h0.3c0.1,0,0.2,0,0.3,0c0.1,0,0.3,0,0.4,0l1.8,0l1.5,0c1.3,0,2.1,0,2.6,0c0.1,0,0.4,0,0.7,0l0.2,0l0.1-0.2
		c0-0.1,0.1-0.2,0.1-0.3C200.7,99.3,200.7,99.2,200.6,99L200.6,99z M192.5,90.2c-0.5,0-1.1,0-1.7,0c-1.2,0-2.3,0-3.3-0.1
		c0-0.1,0-0.2,0.1-0.2c0-0.1,0.1-0.4,0.2-0.8c0.1-0.4,0.3-0.8,0.4-1.1c0.3-0.8,0.7-2,1.3-3.5c0.1-0.2,0.3-0.6,0.4-1l1.2,3.1
		c0.1,0.2,0.4,1.1,1.1,2.8C192.3,89.7,192.4,89.9,192.5,90.2z"/>
	<path class="st0" d="M219.7,95.2c-0.1-0.1-0.2-0.1-0.3-0.1l-0.4,0.1l0,0.1c-0.3,0.6-0.7,1.2-1.1,1.7c-0.4,0.5-0.9,0.9-1.3,1.1
		c-0.4,0.3-1,0.5-1.7,0.7c-0.3,0.1-0.8,0.2-1.5,0.3l-0.7,0c-1.1,0-2.2-0.3-3.2-0.8c-1-0.6-1.9-1.5-2.5-2.8c-0.6-1.3-0.9-3-0.9-5.1
		c0-1.1,0.1-2.1,0.4-3.2c0.3-1,0.6-1.9,1.1-2.6c0.4-0.7,1-1.3,1.6-1.8c0.6-0.5,1.4-0.9,2.2-1.2c0.5-0.2,1.1-0.2,1.8-0.2
		c1.3,0,2.4,0.3,3.3,0.9c0.9,0.6,1.5,1.4,1.9,2.5l0,0.1l0.1,0c0.3,0.1,0.4,0,0.7,0l0.2,0l0-0.2c0-0.3,0-0.5,0-0.6
		c0-0.8-0.1-1.6-0.2-2.4l0-0.1l-0.1-0.1c-0.4-0.3-1-0.6-2-0.9c-1-0.3-2-0.4-3.1-0.4c-1.5,0-2.7,0.1-3.5,0.3
		c-1.2,0.3-2.3,0.7-3.2,1.4c-1,0.6-1.8,1.5-2.5,2.4c-0.7,1-1.2,1.9-1.6,2.9c-0.3,1-0.5,2.1-0.5,3.4c0,1.3,0.2,2.6,0.6,3.7
		c0.4,1.1,1,2.1,1.7,2.9c0.7,0.8,1.5,1.4,2.5,1.8c0.9,0.5,1.8,0.8,2.5,1c0.8,0.2,2,0.3,3.5,0.3c1.9,0,3.5-0.2,4.7-0.6
		c0.2-0.1,0.4-0.1,0.6-0.2l0.1,0l0-0.1c0.2-0.6,0.5-1.7,0.9-3.4c0-0.1,0-0.2,0-0.5l0-0.1L219.7,95.2z"/>
</g>
<g>
	<path class="st0" d="M50.6,61.7c-4.9,5.9-7.8,13.9-7.3,19.6c0.4,4.8,2.7,8.3,7.7,7.5c5.2-0.8,9.8-6.5,12.7-11.4
		c2.3-3.9,4-9.4,3.7-12.3c-0.1-1.4-0.5-2.5-1.4-3.4c-0.4-0.5-0.7-0.6-0.6-0.9c0.1-0.3,0.7-0.1,1.2,0.2c0.5,0.3,2.2,1.7,2.6,4.9
		c0.6,3.7-0.9,8.6-3.2,12.7c-2.8,4.6-8.8,10.7-15,11.5c-6.2,0.9-10.1-2.5-10.6-8.5C39.9,76,43.1,68,49.2,61
		c5.5-6.3,13-11.4,20.1-12.9c7.8-1.6,17.2-0.4,18.2,11.2c0.9,8.5-9.9,29.9-17,40.8l0,0.1c3.7-3.9,7.5-8.3,13.2-14.6
		c4.9-5.3,10.7-11.8,14.3-16.1c0.7-5,1.6-10.3,3.2-14.8c2.2-5.9,5.2-9.2,8.1-9.8c2.5-0.5,4.7,1.3,4.3,4.8c-0.6,6-6.6,12.2-9.5,16.5
		c-0.3,8.9-0.5,20.9-3.6,27.7l0,0.1c3.7-5.5,13.4-17.8,20.1-26.9c10.6-14.6,13.6-24.5,13.4-29.5c-0.1-2-0.6-3.7-1.8-4.5
		c-1.1-0.6-2-0.1-2-0.6c0.1-0.3,0.9-0.6,1.3-0.7c4-0.8,6.5,1.9,7,5.5c0.5,5.7-3.6,15.6-16.2,31.2c-8.9,11.1-17.8,22.2-24.9,32.6
		c-0.6,1-1.8,2.5-3.4,2.8c-1.4,0.3-1.6-0.9-1-2.2c3.3-7.3,3.4-21.4,4.9-29.8l0-0.1C95.7,74.7,88.6,82.7,83,89
		c-4.9,5.3-15.2,16.7-19.6,21.1c-0.7,0.7-1.6,1.8-2.6,2c-1.6,0.3-2.3-0.7-1.4-2.4c4.1-6.5,8.8-14.7,13-24.4s7.7-20,7.3-27.2
		c-0.4-7.3-4.9-9.8-10.5-8.6C62.4,50.8,55.4,56.1,50.6,61.7z M111.9,50.1c0.4-2.8-0.9-4.2-2.7-3.9c-2,0.4-3.5,3.9-3.9,5.9
		c-0.8,3.5-1.3,8.3-1.5,11.4C106,60.7,111.1,55,111.9,50.1z"/>
</g>
</svg>
